# xmcd CD database file
#
# Track frame offsets:
#	150
#	20100
#	37050
#	52274
#	69534
#	89334
#	104634
#	128709
#	144309
#	166659
#
# Disc length: 2425 seconds
#
# Revision: 0
# Processed by: cddbd v1.5.2PL0 Copyright (c) Steve Scherf et al.
# Submitted via: CDex 1.51
#
DISCID=8f09770a
DTITLE=Tia Hunter - Tia Hunder and the Steve Poone Orchestra
DYEAR=1900
DGENRE=Jazz
TTITLE0=You Don't Know Me
TTITLE1=Kiss
TTITLE2=Dr. Feelgood
TTITLE3=Let the Good Times Roll
TTITLE4=Living for the City
TTITLE5=Hey Pocky A-Way
TTITLE6=In the Air Tonight
TTITLE7=You Are My Sunshine
TTITLE8=Since I Fell For You
TTITLE9=I Wish You Love
EXTD=
EXTT0=
EXTT1=
EXTT2=
EXTT3=
EXTT4=
EXTT5=
EXTT6=
EXTT7=
EXTT8=
EXTT9=
PLAYORDER=
